<?xml version="1.0" encoding="UTF-8" standalone="no"?>
<svg
   xmlns:dc="http://purl.org/dc/elements/1.1/"
   xmlns:cc="http://creativecommons.org/ns#"
   xmlns:rdf="http://www.w3.org/1999/02/22-rdf-syntax-ns#"
   xmlns:svg="http://www.w3.org/2000/svg"
   xmlns="http://www.w3.org/2000/svg"
   xmlns:xlink="http://www.w3.org/1999/xlink"
   xmlns:sodipodi="http://sodipodi.sourceforge.net/DTD/sodipodi-0.dtd"
   xmlns:inkscape="http://www.inkscape.org/namespaces/inkscape"
   id="e939d086-638f-4996-87fc-c8f8e2e76ed8"
   data-name="Layer 1"
   width="887.82"
   height="625.36"
   viewBox="0 0 887.82 625.36"
   version="1.1"
   sodipodi:docname="undraw_photo_4yb9.svg"
   inkscape:version="0.92.3 (2405546, 2018-03-11)">
  <metadata
     id="metadata35">
    <rdf:RDF>
      <cc:Work
         rdf:about="">
        <dc:format>image/svg+xml</dc:format>
        <dc:type
           rdf:resource="http://purl.org/dc/dcmitype/StillImage" />
      </cc:Work>
    </rdf:RDF>
  </metadata>
  <sodipodi:namedview
     pagecolor="#ffffff"
     bordercolor="#666666"
     borderopacity="1"
     objecttolerance="10"
     gridtolerance="10"
     guidetolerance="10"
     inkscape:pageopacity="0"
     inkscape:pageshadow="2"
     inkscape:window-width="1366"
     inkscape:window-height="713"
     id="namedview33"
     showgrid="false"
     inkscape:zoom="0.45079232"
     inkscape:cx="443.91"
     inkscape:cy="312.67999"
     inkscape:window-x="0"
     inkscape:window-y="26"
     inkscape:window-maximized="1"
     inkscape:current-layer="e939d086-638f-4996-87fc-c8f8e2e76ed8" />
  <defs
     id="defs13">
    <linearGradient
       id="54559514-f8bf-4b72-8b13-4037efd0578e"
       x1="600"
       y1="754.02"
       x2="600"
       y2="145.98"
       gradientUnits="userSpaceOnUse">
      <stop
         offset="0"
         stop-color="gray"
         stop-opacity="0.25"
         id="stop2" />
      <stop
         offset="0.54"
         stop-color="gray"
         stop-opacity="0.12"
         id="stop4" />
      <stop
         offset="1"
         stop-color="gray"
         stop-opacity="0.1"
         id="stop6" />
    </linearGradient>
    <linearGradient
       id="e6455490-a92e-4492-9f58-af2cf304751a"
       x1="437.25"
       y1="574.51"
       x2="437.25"
       y2="36.62"
       xlink:href="#54559514-f8bf-4b72-8b13-4037efd0578e" />
    <clipPath
       id="b627ac0e-a25e-4e67-ba10-e4156399602a"
       transform="translate(-163.46 -145.98)">
      <rect
         x="216.65"
         y="194.98"
         width="767.31"
         height="510.36"
         rx="8.85"
         ry="8.85"
         fill="#fff"
         id="rect10" />
    </clipPath>
  </defs>
  <title
     id="title15">photo</title>
  <path
     d="M1036,734.86A19.06,19.06,0,0,1,1017,754H183a19.06,19.06,0,0,1-19-19.16V165.14A19.06,19.06,0,0,1,183,146H1017a19.06,19.06,0,0,1,19,19.16"
     transform="translate(-163.46 -145.98)"
     fill="url(#54559514-f8bf-4b72-8b13-4037efd0578e)"
     id="path17" />
  <path
     d="M1026.19,725.54a18.52,18.52,0,0,1-18.52,18.52H192.93a18.52,18.52,0,0,1-18.52-18.52V174.78a18.52,18.52,0,0,1,18.52-18.52h814.74a18.52,18.52,0,0,1,18.52,18.52"
     transform="translate(-163.46 -145.98)"
     fill="#fff"
     id="path19"
     style="fill:#cccccc" />
  <g
     id="5f7f4fba-1df4-4c9b-ab6f-3f66810cb66e"
     data-name="&lt;Rectangle&gt;">
    <rect
       x="43.49"
       y="36.62"
       width="787.52"
       height="537.89"
       rx="8.85"
       ry="8.85"
       fill="url(#e6455490-a92e-4492-9f58-af2cf304751a)"
       id="rect21" />
  </g>
  <rect
     x="53.19"
     y="49"
     width="767.31"
     height="510.36"
     rx="8.85"
     ry="8.85"
     fill="#fff"
     id="rect24" />
  <g
     clip-path="url(#b627ac0e-a25e-4e67-ba10-e4156399602a)"
     id="g28"
     style="fill:#283139;fill-opacity:0.98431373">
    <path
       d="M174,700.66,388.21,455.19a42.64,42.64,0,0,1,60.34-3.94l60,52.93a42.64,42.64,0,0,0,55.65.67L747.52,350.73a42.64,42.64,0,0,1,59,4l225,247.64a42.64,42.64,0,0,1,10.91,24.9l8.68,97.69a42.64,42.64,0,0,1-42.48,46.42H206.11A42.64,42.64,0,0,1,163.48,730h0A42.64,42.64,0,0,1,174,700.66Z"
       transform="translate(-163.46 -145.98)"
       fill="#6c63ff"
       id="path26"
       style="fill:#283139;fill-opacity:0.98431373" />
  </g>
  <circle
     cx="145.58"
     cy="130.83"
     r="47.52"
     fill="#ff5252"
     id="circle30"
     style="fill:#f04d00;fill-opacity:1" />
</svg>
